<svg xmlns="http://www.w3.org/2000/svg" viewBox="0 0 60 40" width="60" height="40">
  <!-- Helicopter -->
  <g fill="#506380" stroke="#000" stroke-width="1">
    <!-- Main Rotor -->
    <line x1="10" y1="10" x2="50" y2="10" stroke-width="2"/>
    <circle cx="30" cy="10" r="2" fill="#333"/>
    
    <!-- Helicopter Body -->
    <path d="M20 12 Q30 8 40 12 L40 25 Q30 30 20 25 Z"/>
    
    <!-- Cockpit -->
    <path d="M25 15 Q30 12 35 15 L35 20 Q30 22 25 20 Z" fill="#87CEEB" stroke="#333"/>
    
    <!-- Tail -->
    <path d="M20 20 L5 18 L5 22 L20 22 Z"/>
    
    <!-- Tail Rotor -->
    <line x1="5" y1="16" x2="5" y2="24" stroke-width="2"/>
    <circle cx="5" cy="20" r="1" fill="#333"/>
    
    <!-- Landing Skids -->
    <path d="M20 25 L15 30 L20 30" fill="none" stroke="#000" stroke-width="2"/>
    <path d="M40 25 L45 30 L40 30" fill="none" stroke="#000" stroke-width="2"/>
  </g>
</svg> 